<svg width="1200" height="720" viewBox="0 0 1200 720" fill="none" xmlns="http://www.w3.org/2000/svg">
<rect width="1200" height="720" rx="5" fill="#66BB6A"/>
<mask id="mask0_0_74" style="mask-type:alpha" maskUnits="userSpaceOnUse" x="0" y="0" width="1200" height="720">
<rect width="1200" height="720" rx="5" fill="white"/>
</mask>
<g mask="url(#mask0_0_74)">
<path opacity="0.5" fill-rule="evenodd" clip-rule="evenodd" d="M1039 820.433C1039 672.203 1023.92 572.284 858.561 572.284C649.209 572.284 630.803 689.932 467.61 620.313C312.164 553.997 375.132 344.396 143.604 304.743C132.066 302.767 119.797 301.213 106.733 300.12C-168.485 277.091 -163.926 100 -163.926 100V912.629H1001.41C1001.41 912.629 1039 968.662 1039 820.433Z" fill="url(#paint0_radial_0_74)"/>
<path fill-rule="evenodd" clip-rule="evenodd" d="M118 -438.433C118 -290.203 133.081 -190.284 298.439 -190.284C507.791 -190.284 526.197 -307.932 689.39 -238.313C852.582 -168.693 775.05 58.8503 1050.27 81.8798C1325.49 104.909 1320.93 282 1320.93 282V-530.629L155.591 -530.629C155.591 -530.629 118 -586.662 118 -438.433Z" fill="url(#paint1_linear_0_74)"/>
</g>
<rect opacity="0.445089" width="1200" height="720" rx="5" fill="url(#paint2_radial_0_74)"/>
<mask id="mask1_0_74" style="mask-type:alpha" maskUnits="userSpaceOnUse" x="0" y="0" width="1200" height="720">
<rect width="1200" height="720" rx="5" fill="white"/>
</mask>
<g mask="url(#mask1_0_74)">
</g>
<defs>
<radialGradient id="paint0_radial_0_74" cx="0" cy="0" r="1" gradientUnits="userSpaceOnUse" gradientTransform="translate(328.22 388.259) rotate(7.53117) scale(1051.08 737.243)">
<stop stop-color="#43A047"/>
<stop offset="0.201704" stop-color="#53AA57"/>
<stop offset="0.771774" stop-color="#71BD74"/>
<stop offset="1" stop-color="#81C784"/>
</radialGradient>
<linearGradient id="paint1_linear_0_74" x1="1504.95" y1="338.25" x2="818.178" y2="-396.005" gradientUnits="userSpaceOnUse">
<stop stop-color="#43A047"/>
<stop offset="0.201704" stop-color="#53AA57"/>
<stop offset="0.771774" stop-color="#71BD74"/>
<stop offset="1" stop-color="#81C784"/>
</linearGradient>
<radialGradient id="paint2_radial_0_74" cx="0" cy="0" r="1" gradientUnits="userSpaceOnUse" gradientTransform="translate(1200 -116.305) rotate(152.539) scale(844.292 698.084)">
<stop stop-color="#DCEDC8"/>
<stop offset="0.226957" stop-color="#C3DEA5"/>
<stop offset="0.681333" stop-color="#9EC872" stop-opacity="0.01"/>
<stop offset="1" stop-color="#7CB342" stop-opacity="0.01"/>
</radialGradient>
</defs>
</svg>
